<?xml version="1.0" standalone="no"?>
<!DOCTYPE svg PUBLIC "-//W3C//DTD SVG 20010904//EN"
 "http://www.w3.org/TR/2001/REC-SVG-20010904/DTD/svg10.dtd">
<svg version="1.0" xmlns="http://www.w3.org/2000/svg"
 width="179.000000pt" height="224.000000pt" viewBox="0 0 179.000000 224.000000"
 preserveAspectRatio="xMidYMid meet">

<g transform="translate(0.000000,224.000000) scale(0.100000,-0.100000)"
fill="#ffffff" stroke="none">
<path d="M473 1907 l-402 -232 -1 -782 0 -783 125 0 125 0 2 706 3 706 390
225 c215 123 400 230 413 236 21 12 16 17 -102 85 -69 40 -131 72 -138 71 -7
0 -194 -105 -415 -232z"/>
<path d="M1008 1592 l-408 -236 0 -143 c0 -94 4 -143 11 -143 5 0 190 104 410
231 220 126 407 233 415 236 12 5 14 -19 12 -162 l-3 -167 -380 -219 c-209
-120 -399 -229 -422 -243 l-43 -26 0 -305 0 -305 130 0 130 0 0 233 0 232 151
85 c82 47 155 84 162 82 7 -2 72 -38 145 -80 l132 -77 0 -237 0 -238 125 0
125 0 -2 316 -3 316 -132 76 c-72 42 -130 80 -127 83 2 4 62 40 134 80 l130
74 -3 315 -2 314 -125 72 c-69 40 -132 73 -140 72 -8 0 -198 -106 -422 -236z"/>
</g>
</svg>
