<?xml version="1.0" standalone="no"?>
<!DOCTYPE svg PUBLIC "-//W3C//DTD SVG 20010904//EN"
 "http://www.w3.org/TR/2001/REC-SVG-20010904/DTD/svg10.dtd">
<svg version="1.0" xmlns="http://www.w3.org/2000/svg"
 width="512.000000pt" height="512.000000pt" viewBox="0 0 512.000000 512.000000"
 preserveAspectRatio="xMidYMid meet">

<g transform="translate(0.000000,512.000000) scale(0.100000,-0.100000)"
fill="#000000" stroke="none">
<path d="M78 5099 c-23 -12 -46 -35 -58 -59 -20 -39 -20 -54 -20 -2480 0
-2427 0 -2441 20 -2480 13 -26 34 -47 60 -60 39 -20 53 -20 2480 -20 2427 0
2441 0 2480 20 26 13 47 34 60 60 20 39 20 53 20 2480 0 2427 0 2441 -20 2480
-13 26 -34 47 -60 60 -39 20 -53 20 -2482 20 -2413 -1 -2443 -1 -2480 -21z
m4272 -958 c48 -25 83 -93 75 -145 -8 -55 -1738 -2980 -1780 -3010 -42 -29
-128 -29 -170 0 -38 28 -1770 2951 -1780 3005 -11 59 32 135 90 159 11 5 810
9 1775 9 1691 1 1757 0 1790 -18z"/>
<path d="M1142 3802 c99 -174 1414 -2392 1418 -2392 9 0 344 574 344 590 1 8
-242 430 -539 938 l-540 922 -358 0 -358 0 33 -58z"/>
<path d="M2192 3838 c8 -13 210 -356 448 -763 238 -407 438 -746 445 -753 9
-10 113 159 465 755 249 423 455 771 457 776 2 4 -408 7 -913 7 l-916 0 14
-22z"/>
</g>
</svg>
