<?xml version="1.0" encoding="utf-8"?>
<!-- Generator: Adobe Illustrator 21.1.0, SVG Export Plug-In . SVG Version: 6.00 Build 0)  -->
<svg version="1.1" id="Layer_1" xmlns="http://www.w3.org/2000/svg" xmlns:xlink="http://www.w3.org/1999/xlink" x="0px" y="0px"
	 viewBox="0 0 150 111" style="enable-background:new 0 0 150 111;" xml:space="preserve">
<style type="text/css">
	.st0{filter:url(#AI_Shadow_1);}
	.st1{fill:#0078B8;}
	.st2{fill:#FFFFFF;}
</style>
<filter  filterUnits="objectBoundingBox" id="AI_Shadow_1">
	<feGaussianBlur  in="SourceAlpha" result="blur" stdDeviation="2"></feGaussianBlur>
	<feOffset  dx="0" dy="2"></feOffset>
	<feComponentTransfer>
		<feFuncA  slope="0.2" type="linear"></feFuncA>
	</feComponentTransfer>
	<feMerge>
		<feMergeNode></feMergeNode>
		<feMergeNode  in="SourceGraphic"></feMergeNode>
	</feMerge>
</filter>
<g class="st0">
	<g>
		<path class="st1" d="M125.5,51.8c0,21.6-13.7,40.1-32.9,47.2c-4.2,1.5-8.6,2.5-13.2,2.9c-1.4,0.1-2.7,0.2-4.1,0.2
			C47.5,102.1,25,79.6,25,51.8S47.5,1.5,75.3,1.5C103,1.6,125.5,24.1,125.5,51.8z"/>
	</g>
	<g>
		<path class="st2" d="M68.4,75.1c0-10.7,0-21.4,0-32.2c3.6,0,7.1,0,10.7,0c0,0.7,0,1.5,0,2.2s0,1.5,0,2.3c0.4-0.5,0.7-1,1.1-1.4
			c1.6-1.9,3.6-3.2,6.1-3.6c2.1-0.4,4.1-0.3,6.1,0.2c2.3,0.6,4.1,1.8,5.6,3.6c1.2,1.5,1.9,3.1,2.4,4.9s0.7,3.7,0.7,5.6
			c0,6,0,12,0,18c0,0.1,0,0.2,0,0.3c-0.3,0.1-10.3,0.1-10.7,0c0-0.1,0-0.3,0-0.5c0-5.5,0-10.9,0-16.4c0-0.9,0-1.9-0.2-2.8
			c-0.2-1-0.5-2-1.1-2.9c-0.7-1-1.7-1.6-3-1.8c-1.2-0.2-2.4-0.1-3.6,0.5c-1,0.5-1.7,1.2-2.3,2.1c-0.7,1-1,2.1-1,3.3c0,0.5,0,1,0,1.4
			c0,5.5,0,11.1,0,16.6c0,0.2,0,0.3,0,0.5C78.8,75.2,68.9,75.2,68.4,75.1z"/>
		<path class="st2" d="M51.8,43c3.6,0,7.1,0,10.6,0c0,10.7,0,21.4,0,32.2c-3.5,0-7.1,0-10.6,0C51.8,64.4,51.8,53.7,51.8,43z"/>
		<path class="st2" d="M57.1,38.6c-1.2,0-2.3-0.2-3.3-0.8c-1.5-0.9-2.4-2.2-2.6-3.9c-0.3-1.6,0.1-3.1,1.1-4.3
			c0.7-0.9,1.6-1.5,2.7-1.8c1.5-0.5,3.1-0.5,4.5,0.1c2.1,0.8,3.3,2.3,3.5,4.5c0.3,2.3-0.8,4.4-2.8,5.5
			C59.3,38.4,58.2,38.6,57.1,38.6z"/>
	</g>
</g>
</svg>
